<?xml version="1.0" encoding="utf-8"?>
<!-- Generator: Adobe Illustrator 24.3.0, SVG Export Plug-In . SVG Version: 6.00 Build 0)  -->
<svg version="1.1" xmlns="http://www.w3.org/2000/svg" xmlns:xlink="http://www.w3.org/1999/xlink" x="0px" y="0px"
	 viewBox="0 0 100 102.46" style="enable-background:new 0 0 100 102.46;" xml:space="preserve">
<style type="text/css">
	.st0{fill:#F4F6FA;}
	.st1{fill:#FFFFFF;}
	.st2{fill:#2BBFE8;}
	.st3{fill:#7E68C6;}
	.st4{fill:#CB479C;}
	.st5{fill:#FA9F3C;}
	.st6{fill:#F7BB40;}
	.st7{fill:#2A3942;}
</style>
<g id="_x36_">
</g>
<g id="_x35_">
	<g>
		<g>
			<rect x="0.02" y="3.32" class="st1" width="100.42" height="100.42"/>
			<g>
				<g id="_x31_043_x2C__Medical_x2C__Monitor_x2C__Sign_1_">
					<g>
						<path d="M50.23,68.59c0.72,0,1.31,0.58,1.31,1.31c0,0.72-0.58,1.31-1.31,1.31c-0.72,0-1.3-0.58-1.3-1.31
							C48.93,69.18,49.51,68.59,50.23,68.59z"/>
						<path d="M66.6,56.04c0.72,0,1.31,0.58,1.31,1.31s-0.58,1.31-1.31,1.31c-0.72,0-1.3-0.58-1.3-1.31S65.88,56.04,66.6,56.04z"/>
						<path d="M62.78,25.92c0.72,0,1.31,0.58,1.31,1.31c0,0.72-0.58,1.31-1.31,1.31s-1.31-0.58-1.31-1.31
							C61.48,26.5,62.06,25.92,62.78,25.92z"/>
						<path d="M50.23,27.12c0.72,0,1.31,0.58,1.31,1.31c0,0.72-0.58,1.31-1.31,1.31c-0.72,0-1.3-0.58-1.3-1.31
							C48.93,27.71,49.51,27.12,50.23,27.12z"/>
						<path d="M38.98,25.92c0.72,0,1.31,0.58,1.31,1.31c0,0.72-0.58,1.31-1.31,1.31c-0.72,0-1.3-0.58-1.3-1.31
							C37.68,26.5,38.26,25.92,38.98,25.92z"/>
						<path d="M74.13,35.96h-47.7c-0.7,0-1.31,0.6-1.31,1.31v28.92c0,0.7,0.6,1.31,1.31,1.31h47.7c0.7,0,1.31-0.6,1.31-1.31V37.26
							C75.33,36.56,74.73,35.96,74.13,35.96z M27.64,64.88V47.31h8.84c0.7,0,1.31-0.6,1.31-1.31c0-0.7-0.6-1.31-1.31-1.31h-8.84
							v-1.21h2.51c0.7,0,1.3-0.6,1.3-1.31c0-0.7-0.6-1.31-1.3-1.31h-2.51v-2.41h45.19v17.57h-2.51c-0.7,0-1.31,0.6-1.31,1.31
							c0,0.7,0.6,1.21,1.31,1.21h2.51v1.31h-8.84c-0.7,0-1.31,0.6-1.31,1.31c0,0.7,0.6,1.31,1.31,1.31h8.84v2.51H27.64V64.88z"/>
						<path d="M74.63,32.24h-48.8c-2.51,0-4.52,2.01-4.52,4.52V70.5c0,2.51,2.01,4.52,4.52,4.52H42.7v2.51h-1.91
							c-1.71,0-3.11,1.41-3.11,3.11c0,1.71,1.41,3.11,3.11,3.11h18.88c1.71,0,3.11-1.41,3.11-3.11c0-1.71-1.41-3.11-3.11-3.11h-1.91
							v-2.51h16.87c2.51,0,4.52-2.01,4.52-4.52V36.66C79.15,34.25,77.14,32.24,74.63,32.24z M60.27,80.54c0,0.3-0.3,0.6-0.6,0.6
							H40.79c-0.3,0-0.6-0.3-0.6-0.6c0-0.3,0.3-0.6,0.6-0.6c2.11,0,16.67,0,18.88,0C59.97,79.94,60.27,80.14,60.27,80.54z
							 M55.25,77.43H45.21v-2.51h10.04V77.43z M76.64,70.4c0,1.11-0.9,2.01-2.01,2.01c-1.81,0-46.79,0-48.8,0
							c-1.1,0-2.01-0.9-2.01-2.01V36.66c0-1.1,0.9-2.01,2.01-2.01h48.8c1.1,0,2.01,0.9,2.01,2.01V70.4L76.64,70.4z"/>
						<path d="M67.8,76.13c0.72,0,1.31,0.58,1.31,1.31c0,0.72-0.58,1.31-1.31,1.31c-0.72,0-1.31-0.58-1.31-1.31
							C66.5,76.71,67.08,76.13,67.8,76.13z"/>
						<path d="M77.85,76.13h-6.33c-0.7,0-1.31,0.6-1.31,1.31c0,0.7,0.6,1.31,1.31,1.31h6.33c0.7,0,1.31-0.6,1.31-1.31
							C79.15,76.73,78.55,76.13,77.85,76.13z"/>
						<path d="M32.66,76.13c0.72,0,1.31,0.58,1.31,1.31c0,0.72-0.58,1.31-1.31,1.31c-0.72,0-1.31-0.58-1.31-1.31
							C31.35,76.71,31.94,76.13,32.66,76.13z"/>
						<path d="M28.94,76.13h-6.33c-0.7,0-1.3,0.6-1.3,1.31c0,0.7,0.6,1.31,1.3,1.31h6.33c0.7,0,1.3-0.6,1.3-1.31
							C30.15,76.73,29.54,76.13,28.94,76.13z"/>
						<path d="M53.14,49.31v-1.71c0-1.61-1.3-2.91-2.91-2.91c-1.61,0-2.91,1.31-2.91,2.91v1.71h-1.71c-1.61,0-2.91,1.31-2.91,2.91
							c0,1.61,1.31,2.91,2.91,2.91h1.71v1.71c0,1.61,1.31,2.91,2.91,2.91c1.61,0,2.91-1.31,2.91-2.91v-1.71h1.71
							c1.61,0,2.91-1.31,2.91-2.91c0-1.61-1.3-2.91-2.91-2.91H53.14L53.14,49.31z M55.25,52.33c0,0.2-0.2,0.4-0.4,0.4h-2.91
							c-0.7,0-1.3,0.6-1.3,1.31v2.91c0,0.2-0.2,0.4-0.4,0.4c-0.2,0-0.4-0.2-0.4-0.4v-2.91c0-0.7-0.6-1.31-1.31-1.31h-2.91
							c-0.2,0-0.4-0.2-0.4-0.4c0-0.2,0.2-0.4,0.4-0.4h2.91c0.7,0,1.31-0.6,1.31-1.31v-2.91c0-0.2,0.2-0.4,0.4-0.4
							c0.2,0,0.4,0.2,0.4,0.4v2.91c0,0.7,0.6,1.31,1.3,1.31h2.91C55.05,51.82,55.25,52.03,55.25,52.33z"/>
						<path d="M50.23,40.98C44,40.98,38.88,46,38.88,52.33S44,63.57,50.23,63.57c6.23,0,11.35-5.02,11.35-11.35
							C61.58,45.9,56.46,40.98,50.23,40.98z M50.23,61.06c-4.82,0-8.84-3.92-8.84-8.84c0-4.92,4.02-8.74,8.84-8.74
							c4.82,0,8.84,3.92,8.84,8.84S55.05,61.06,50.23,61.06z"/>
						<path d="M33.96,40.98c0.72,0,1.31,0.58,1.31,1.31c0,0.72-0.58,1.31-1.31,1.31c-0.72,0-1.31-0.58-1.31-1.31
							C32.66,41.56,33.24,40.98,33.96,40.98z"/>
						<path d="M32.05,30.94c1.71,0,3.11-1.41,3.11-3.11c0-1.71-1.41-3.11-3.11-3.11c-1.71,0-3.11,1.41-3.11,3.11
							C28.94,29.53,30.35,30.94,32.05,30.94z M32.05,27.22c0.3,0,0.6,0.3,0.6,0.6c0,0.3-0.3,0.6-0.6,0.6c-0.3,0-0.6-0.3-0.6-0.6
							C31.45,27.52,31.65,27.22,32.05,27.22z"/>
						<path d="M70.92,29.73c1.71,0,3.11-1.41,3.11-3.11c0-1.71-1.41-3.21-3.11-3.21c-1.71,0-3.11,1.41-3.11,3.11
							C67.8,28.23,69.21,29.73,70.92,29.73z M70.92,25.92c0.3,0,0.6,0.3,0.6,0.6c0,0.3-0.3,0.6-0.6,0.6c-0.3,0-0.6-0.2-0.6-0.6
							C70.31,26.12,70.61,25.92,70.92,25.92z"/>
					</g>
				</g>
			</g>
		</g>
	</g>
</g>
<g id="_x34_">
</g>
<g id="_x33_">
</g>
<g id="_x32_">
</g>
<g id="_x31_">
</g>
</svg>
